<?xml version="1.0" encoding="UTF-8"?>
<!DOCTYPE svg PUBLIC "-//W3C//DTD SVG 1.1//EN" "http://www.w3.org/Graphics/SVG/1.1/DTD/svg11.dtd">
<!-- Creator: CorelDRAW 2020 (64-Bit) -->
<svg xmlns="http://www.w3.org/2000/svg" xml:space="preserve" width="32px" height="32px" version="1.1" shape-rendering="geometricPrecision" text-rendering="geometricPrecision" image-rendering="optimizeQuality" fill-rule="evenodd" clip-rule="evenodd"
viewBox="0 0 32 32"
 xmlns:xlink="http://www.w3.org/1999/xlink"
 xmlns:xodm="http://www.corel.com/coreldraw/odm/2003">
 <g id="Layer_x0020_1">
  <metadata id="CorelCorpID_0Corel-Layer"/>
  <g>
   <path fill="white" d="M6.4 0l19.2 0c3.52,0 6.4,2.88 6.4,6.4l0 19.2c0,3.52 -2.88,6.4 -6.4,6.4l-19.2 0c-3.52,0 -6.4,-2.88 -6.4,-6.4l0 -19.2c0,-3.52 2.88,-6.4 6.4,-6.4z"/>
   <path id="1" fill="#54565B" d="M6.4 0l19.2 0c3.52,0 6.4,2.88 6.4,6.4l0 19.2c0,3.52 -2.88,6.4 -6.4,6.4l-19.2 0c-3.52,0 -6.4,-2.88 -6.4,-6.4l0 -19.2c0,-3.52 2.88,-6.4 6.4,-6.4zm19.2 2l-19.2 0c-1.21,0 -2.31,0.5 -3.11,1.29 -0.8,0.8 -1.29,1.9 -1.29,3.11l0 19.2c0,1.21 0.49,2.31 1.29,3.11 0.8,0.8 1.9,1.29 3.11,1.29l19.2 0c1.21,0 2.31,-0.49 3.11,-1.29 0.79,-0.8 1.29,-1.9 1.29,-3.11l0 -19.2c0,-1.21 -0.5,-2.31 -1.29,-3.11 -0.8,-0.79 -1.9,-1.29 -3.11,-1.29z"/>
  </g>
  <g>
   <path fill="#FB5542" d="M18.63 9.91l0.01 2.25c-0.09,1.29 0.72,4.07 1.37,5.31 0.58,1.1 0.87,1.55 1.68,2.44 0.29,0.32 1.59,1.44 2.11,1.08 0.03,-0.02 0.03,-0.02 0.02,-0.06 -0.01,-0.06 -0.04,-0.09 -0.1,-0.17 -0.28,-0.3 -0.54,-0.63 -0.82,-0.95 -0.5,-0.72 -0.81,-1.61 -1.02,-2.46 -0.03,-0.1 0.01,-0.21 -0.12,-0.21 -0.15,0.01 -0.51,0.45 -0.63,0.57 -0.12,-0.01 -0.32,-0.24 -0.36,-0.34 0.06,-0.25 0.28,-0.2 0.09,-0.45 -0.12,-0.17 -0.03,-0.3 -0.06,-0.48 0.21,-0.21 0.54,0.01 0.75,-0.11 0.25,0.01 0,-1.1 -0.11,-1.19 -0.29,0.14 -0.66,0.77 -0.91,0.83 -0.11,-0.06 -0.33,-0.25 -0.36,-0.36 0.03,-0.11 0.05,-0.07 0.13,-0.14 0.06,-0.07 0.08,-0.12 0.15,-0.19 0.25,-0.28 0.73,-0.62 0.5,-0.72 -0.08,-0.03 -0.27,0.02 -0.39,-0.02 -0.05,-0.04 -0.11,-0.47 0.06,-0.53 0.17,-0.01 0.65,0.02 0.77,-0.1 0.03,-0.04 -0.01,-1.05 -0.1,-1.15 -0.35,0.11 -0.81,0.87 -1.06,0.95 -0.14,-0.06 -0.33,-0.28 -0.33,-0.43 0.08,-0.15 0.3,-0.34 0.43,-0.46 0.09,-0.08 0.45,-0.36 0.23,-0.43 -0.13,-0.04 -0.23,-0.02 -0.35,-0.01 -0.17,-0.01 -0.16,-0.08 -0.15,-0.24 0,-0.08 0.02,-0.28 0.06,-0.33 0.14,-0.02 0.27,0 0.41,0 0.21,0 0.73,0.04 0.77,-0.18 0.02,-0.1 -0.09,-1.99 -0.11,-2.12 -0.02,-0.15 -0.11,-0.23 -0.24,-0.32 -0.34,-0.24 -0.67,-0.48 -0.99,-0.74 -0.24,-0.19 -0.23,-0.3 -0.9,0.35 -0.17,0.16 -0.32,0.14 -0.41,0.28 -0.11,0.18 -0.03,0.62 -0.02,0.83zm2.67 1.72c0.61,0.34 0.62,0.78 0.04,1.34l-0.04 -1.34zm0.09 2.28c0.5,0.47 0.52,0.88 0.05,1.23l-0.05 -1.23zm0.16 2.42c0.55,0.18 0.61,0.45 0.21,0.81l-0.21 -0.81z"/>
   <path id="1" fill="none" stroke="white" stroke-width="0.3" stroke-miterlimit="22.9256" d="M18.63 9.91l0.01 2.25c-0.09,1.29 0.72,4.07 1.37,5.31 0.58,1.1 0.87,1.55 1.68,2.44 0.29,0.32 1.59,1.44 2.11,1.08 0.03,-0.02 0.03,-0.02 0.02,-0.06 -0.01,-0.06 -0.04,-0.09 -0.1,-0.17 -0.28,-0.3 -0.54,-0.63 -0.82,-0.95 -0.5,-0.72 -0.81,-1.61 -1.02,-2.46 -0.03,-0.1 0.01,-0.21 -0.12,-0.21 -0.15,0.01 -0.51,0.45 -0.63,0.57 -0.12,-0.01 -0.32,-0.24 -0.36,-0.34 0.06,-0.25 0.28,-0.2 0.09,-0.45 -0.12,-0.17 -0.03,-0.3 -0.06,-0.48 0.21,-0.21 0.54,0.01 0.75,-0.11 0.25,0.01 0,-1.1 -0.11,-1.19 -0.29,0.14 -0.66,0.77 -0.91,0.83 -0.11,-0.06 -0.33,-0.25 -0.36,-0.36 0.03,-0.11 0.05,-0.07 0.13,-0.14 0.06,-0.07 0.08,-0.12 0.15,-0.19 0.25,-0.28 0.73,-0.62 0.5,-0.72 -0.08,-0.03 -0.27,0.02 -0.39,-0.02 -0.05,-0.04 -0.11,-0.47 0.06,-0.53 0.17,-0.01 0.65,0.02 0.77,-0.1 0.03,-0.04 -0.01,-1.05 -0.1,-1.15 -0.35,0.11 -0.81,0.87 -1.06,0.95 -0.14,-0.06 -0.33,-0.28 -0.33,-0.43 0.08,-0.15 0.3,-0.34 0.43,-0.46 0.09,-0.08 0.45,-0.36 0.23,-0.43 -0.13,-0.04 -0.23,-0.02 -0.35,-0.01 -0.17,-0.01 -0.16,-0.08 -0.15,-0.24 0,-0.08 0.02,-0.28 0.06,-0.33 0.14,-0.02 0.27,0 0.41,0 0.21,0 0.73,0.04 0.77,-0.18 0.02,-0.1 -0.09,-1.99 -0.11,-2.12 -0.02,-0.15 -0.11,-0.23 -0.24,-0.32 -0.34,-0.24 -0.67,-0.48 -0.99,-0.74 -0.24,-0.19 -0.23,-0.3 -0.9,0.35 -0.17,0.16 -0.32,0.14 -0.41,0.28 -0.11,0.18 -0.03,0.62 -0.02,0.83zm2.67 1.72c0.61,0.34 0.62,0.78 0.04,1.34m0.05 0.94c0.5,0.47 0.52,0.88 0.05,1.23m0.11 1.19c0.55,0.18 0.61,0.45 0.21,0.81"/>
  </g>
  <path fill="#FB5542" stroke="white" stroke-width="0.3" stroke-miterlimit="22.9256" d="M18.09 9.52c-0.02,-0.18 0.04,-0.5 -0.29,-0.37 -0.24,0.11 -0.66,0.05 -0.94,0.01 -1,-0.14 -1.99,-0.97 -2.62,-1.72 -0.34,-0.41 -0.7,-2.06 -0.72,-2.5 -0.04,-1.2 0.16,-0.88 -0.45,-1.19 -0.05,-0.02 -1.33,-0.52 -1.41,-0.54 -0.47,-0.1 -0.47,0.86 -0.48,1.1 -0.06,1.63 0.88,3.52 1.51,4.98 0.37,0.98 2.13,3.5 2.85,4.35 0.46,0.56 1.59,1.92 2.13,0.65 0.55,-1.29 0.5,-3.45 0.42,-4.77z"/>
  <path fill="#FB5542" stroke="white" stroke-width="0.3" stroke-miterlimit="22.9256" d="M10.83 5.76c-0.1,-0.49 -0.21,-1.39 -0.13,-1.85 0.01,-0.11 0,-0.15 -0.08,-0.22 -0.08,0.02 -0.26,0.14 -0.36,0.18 -0.75,0.37 -1.94,1.23 -2.66,1.78 -0.1,0.08 -0.63,0.32 -0.61,0.53 0.05,0.17 0.62,0.66 0.78,0.82 1.78,1.77 2.83,3.28 4.41,5.13 0.15,0.17 0.62,0.84 0.75,0.9 0.58,-0.21 0.35,-1.32 0.06,-1.9 -0.59,-1.18 -1.63,-3.74 -2.16,-5.37z"/>
  <path fill="#FB5542" stroke="white" stroke-width="0.3" stroke-miterlimit="22.9256" d="M17.16 16.02c-0.66,-0.1 -1.42,-1.06 -1.86,-1.55 -0.12,-0.13 -1.3,-2.08 -1.26,-1.31 0.01,1 -0.69,0.84 -0.23,1.51 0.78,1.16 1.98,2.67 2.62,3.82 0.73,1.28 1.58,2.45 2.4,3.67 1.01,1.31 2.9,2.85 4.22,3.42 1.07,0.46 3.21,1.28 4.18,1.36 0.16,0.02 0.5,0.18 0.6,-0.02 0.12,-0.24 0.08,-0.72 0.01,-0.98 -0.24,-0.91 -1.48,-2.27 -2.06,-2.95 -0.37,-0.38 -0.73,-0.75 -1.09,-1.14 -0.2,-0.21 -0.21,-0.39 -0.53,-0.34 -0.18,0.02 -0.37,0.06 -0.56,0.04 -1.13,-0.12 -2.01,-1.27 -2.76,-2.1 -0.58,-0.82 -1.05,-1.67 -1.47,-2.6 -0.17,-0.49 -0.56,-1.37 -0.62,-1.85 -0.01,-0.12 -0.02,-0.3 -0.17,-0.31 -0.15,0 -0.18,0.46 -0.27,0.61 -0.25,0.46 -0.58,0.81 -1.15,0.72z"/>
  <path fill="#FB5542" stroke="white" stroke-width="0.3" stroke-miterlimit="22.9256" d="M14.79 18.07c-0.08,-0.12 -1.85,-2.61 -2.01,-2.95 -0.06,-0.12 -0.18,-0.28 -0.28,-0.35 -0.08,-0.05 -0.8,0.02 -1.12,-0.02 -2.13,-0.29 -6.48,-4.04 -7.65,-5.16 -0.14,-0.13 -0.28,-0.34 -0.46,-0.38 -1.29,0.86 3.2,4.84 3.63,5.27 1.64,1.62 3.4,3.16 5.01,4.78 1.54,1.52 3.04,3.04 4.56,4.58 2.08,2.08 5.49,5.19 8.71,4.53 0.17,-0.03 0.59,-0.14 0.74,-0.21 0.13,-0.08 0.68,-0.32 0.67,-0.46 0.01,-0.13 -0.5,-0.15 -0.65,-0.18 -1.2,-0.27 -2.33,-0.6 -3.42,-1.11 -1.01,-0.48 -2.44,-1.37 -3.15,-2.06 -2.11,-2.02 -2.88,-3.95 -4.58,-6.28z"/>
  <path fill="#FB5542" stroke="white" stroke-width="0.3" stroke-miterlimit="22.9256" d="M11.14 13.75c0.24,0.1 0.69,0.08 0.8,-0.03l-0.08 -0.13c-0.36,-0.81 -2.96,-3.81 -3.72,-4.57 -0.6,-0.6 -1.21,-1.22 -1.81,-1.82 -0.16,-0.16 -0.35,-0.47 -0.6,-0.39 -0.56,0.17 -2.27,0.84 -2.41,1.33 -0.08,0.3 1.97,1.84 2.29,2.16 1.36,1.32 3.82,2.76 5.53,3.45z"/>
  <path fill="#54565B" d="M14.79 18.07c-0.08,-0.12 -1.85,-2.61 -2.01,-2.95 -0.06,-0.12 -0.18,-0.28 -0.29,-0.35 -0.07,-0.05 -0.79,0.02 -1.11,-0.03 -2.13,-0.28 -6.48,-4.03 -7.65,-5.15 -0.14,-0.13 -0.28,-0.34 -0.46,-0.38 -1.29,0.86 3.2,4.84 3.63,5.27 1.64,1.62 3.4,3.16 5.01,4.78 1.54,1.52 3.04,3.04 4.56,4.58 2.08,2.08 5.49,5.19 8.71,4.54 0.17,-0.04 0.59,-0.15 0.73,-0.22 0.15,-0.08 0.69,-0.32 0.68,-0.46 0.01,-0.13 -0.49,-0.15 -0.65,-0.18 -1.19,-0.27 -2.33,-0.6 -3.43,-1.11 -1,-0.48 -2.43,-1.37 -3.14,-2.06 -2.11,-2.02 -2.89,-3.95 -4.58,-6.28z"/>
  <path fill="#54565B" d="M11.14 13.75c0.24,0.1 0.7,0.08 0.8,-0.03l-0.08 -0.13c-0.36,-0.8 -2.96,-3.81 -3.72,-4.57 -0.6,-0.6 -1.21,-1.22 -1.81,-1.82 -0.15,-0.16 -0.35,-0.47 -0.6,-0.39 -0.56,0.17 -2.27,0.84 -2.41,1.33 -0.08,0.3 1.97,1.84 2.29,2.16 1.36,1.32 3.81,2.76 5.53,3.45z"/>
  <path fill="#54565B" d="M20.06 12.14c-0.01,0.16 -0.02,0.23 0.15,0.24 0.12,-0.01 0.22,-0.03 0.35,0.01 0.22,0.07 -0.14,0.35 -0.23,0.43 -0.13,0.12 -0.35,0.31 -0.43,0.46 0,0.15 0.19,0.37 0.33,0.43 0.25,-0.08 0.71,-0.84 1.06,-0.95 0.02,0.02 0.04,0.1 0.05,0.21 0.4,-0.5 0.38,-0.94 -0.04,-1.34 -0.04,0.22 -0.56,0.18 -0.77,0.18 -0.14,0 -0.27,-0.02 -0.41,0 -0.04,0.05 -0.06,0.25 -0.06,0.33z"/>
  <path fill="#54565B" d="M21.55 16.33c-0.21,0.12 -0.54,-0.1 -0.75,0.11 0.03,0.18 -0.06,0.31 0.06,0.48 0.19,0.25 -0.03,0.2 -0.09,0.45 0.04,0.1 0.24,0.33 0.36,0.34 0.12,-0.12 0.48,-0.56 0.63,-0.57 0.28,-0.33 0.21,-0.6 -0.21,-0.81z"/>
  <path fill="#54565B" d="M20.53 15.97c0.25,-0.06 0.62,-0.69 0.91,-0.83 0.35,-0.44 0.32,-0.86 -0.05,-1.23 -0.12,0.12 -0.6,0.09 -0.77,0.1 -0.17,0.06 -0.11,0.49 -0.06,0.53 0.12,0.04 0.31,-0.01 0.39,0.02 0.23,0.1 -0.25,0.44 -0.5,0.72 -0.07,0.07 -0.09,0.12 -0.15,0.19 -0.08,0.07 -0.1,0.03 -0.13,0.14 0.03,0.11 0.25,0.3 0.36,0.36z"/>
 </g>
</svg>
